<svg xmlns="http://www.w3.org/2000/svg" width="90.311" height="97.499" viewBox="0 0 90.311 97.499">
  <g id="ICONE" transform="translate(-562.5 -1351.501)">
    <g id="Grupo_26" data-name="Grupo 26" transform="translate(567.997 1387.371)" opacity="0.3">
      <path id="Caminho_67" data-name="Caminho 67" d="M602.1,138.859c.017-.026.03-.054.045-.082s.03-.052.043-.079l0-.009c.011-.025.017-.05.027-.075s.023-.058.031-.088.014-.06.02-.09.013-.057.017-.086.005-.061.007-.091,0-.059,0-.089,0-.057-.006-.086,0-.062-.008-.094-.011-.055-.017-.082-.013-.063-.022-.094-.02-.055-.03-.082-.017-.051-.028-.076l-.006-.012c-.012-.026-.027-.051-.042-.076s-.03-.057-.048-.084-.031-.041-.047-.062-.041-.057-.065-.083l-.008-.01-12.839-14.158a1.24,1.24,0,0,0-.177-.158l-.036-.027a1.308,1.308,0,0,0-.2-.113l-.038-.016a1.263,1.263,0,0,0-.212-.069l-.015,0a1.247,1.247,0,0,0-.232-.025l-.027,0H546.33l-.028,0a1.272,1.272,0,0,0-.161.014l-.044.006-.025,0-.018.005a1.266,1.266,0,0,0-.169.051l-.021.006c-.008,0-.014.008-.022.012l-.036.015a1.256,1.256,0,0,0-.165.089l-.013.009-.018.014-.037.027c-.036.027-.07.056-.1.087l-.043.041c-.01.01-.022.019-.031.03L532.557,137.33l-.008.01c-.022.025-.041.052-.061.078s-.035.044-.05.067-.028.049-.042.075-.033.056-.047.086l-.005.01c-.01.022-.016.044-.025.066s-.025.062-.034.093-.014.057-.02.085-.014.06-.019.091-.006.06-.008.089-.006.06-.006.09,0,.06.005.09,0,.06.007.089.012.061.018.092.01.056.019.084.023.067.036.1.013.043.023.064l0,.007c.015.032.033.063.051.095s.023.046.037.067.033.044.049.067.039.055.061.08l0,.005,33.774,38.508c.008.009.018.015.026.024a1.252,1.252,0,0,0,.145.134c.014.012.028.023.043.034a1.289,1.289,0,0,0,.2.119l.04.016a1.3,1.3,0,0,0,.189.062l.062.014a1.125,1.125,0,0,0,.481,0l.062-.014a1.312,1.312,0,0,0,.188-.062l.04-.016a1.278,1.278,0,0,0,.2-.119c.015-.011.029-.023.043-.034a1.252,1.252,0,0,0,.145-.134c.008-.009.018-.015.026-.024l33.774-38.508,0,0c.025-.029.047-.061.069-.092S602.09,138.879,602.1,138.859Z" transform="translate(-532.23 -122.757)" fill="#19aae9"/>
      <circle id="Elipse_5" data-name="Elipse 5" cx="1.521" cy="1.521" r="1.521" transform="translate(45.68 21.779)" fill="#19aae9"/>
    </g>
    <path id="LIQUIDEZ" d="M2160.693-7107.479l-.08-.019a1.674,1.674,0,0,1-.24-.08l-.052-.021a1.639,1.639,0,0,1-.259-.151l-.056-.044a1.63,1.63,0,0,1-.186-.171c-.01-.011-.023-.019-.033-.031l-43.047-49.08-.005-.007c-.027-.031-.052-.068-.077-.1s-.043-.056-.063-.086-.031-.057-.047-.084-.046-.079-.064-.12l0-.01c-.012-.027-.019-.055-.029-.081-.016-.042-.033-.084-.046-.127s-.016-.071-.023-.107-.019-.078-.024-.117-.006-.075-.008-.114a1.124,1.124,0,0,1-.006-.115c0-.036,0-.075.006-.113s.005-.076.011-.113a1.113,1.113,0,0,1,.024-.116c.008-.036.015-.072.025-.108s.029-.079.044-.118.019-.058.031-.085a.062.062,0,0,0,.008-.014c.017-.037.039-.072.06-.108s.034-.064.054-.1.042-.057.064-.086.05-.067.078-.1a.087.087,0,0,1,.011-.014l16.363-18.045c.013-.015.027-.025.04-.039s.036-.036.055-.054a1.63,1.63,0,0,1,.131-.109c.016-.012.031-.024.047-.035a.235.235,0,0,1,.023-.018l.017-.012a1.521,1.521,0,0,1,.21-.114l.046-.02c.01,0,.019-.011.029-.015a.264.264,0,0,0,.027-.008,1.661,1.661,0,0,1,.216-.065l.022-.006.032-.006c.019,0,.038,0,.056-.008.068-.01.137-.016.205-.019.013,0,.024,0,.036,0h53.368c.011,0,.022,0,.034,0a1.658,1.658,0,0,1,.3.032l.019,0a1.574,1.574,0,0,1,.271.088c.016.007.032.013.048.021a1.433,1.433,0,0,1,.251.144c.016.011.031.023.047.035a1.532,1.532,0,0,1,.227.2l16.364,18.045a.114.114,0,0,0,.01.013c.029.033.056.07.082.105s.042.053.059.08.041.07.062.106.037.064.052.1l.008.015c.014.032.023.065.035.1s.029.068.039.1.019.078.027.119.017.069.023.1.007.08.01.119.008.073.008.109,0,.076-.007.114,0,.077-.009.116-.014.074-.021.11-.014.076-.026.114-.026.074-.04.111-.02.064-.034.1l-.006.012c-.016.034-.035.067-.054.1s-.036.07-.057.1-.035.048-.051.07c-.029.04-.057.08-.088.117l0,.006L2162.208-7108a.316.316,0,0,1-.034.031,1.476,1.476,0,0,1-.185.171l-.055.044a1.605,1.605,0,0,1-.26.151c-.016.008-.034.013-.051.021a1.736,1.736,0,0,1-.24.08l-.079.019a1.68,1.68,0,0,1-.307.032A1.665,1.665,0,0,1,2160.693-7107.479Zm.3-5.935,11.556-29.07a1.608,1.608,0,0,1,2.09-.9,1.609,1.609,0,0,1,.9,2.09l-9.6,24.162,34.552-39.395H2143.86Zm-4.942-3.719-15.66-39.395H2121.5Zm26.824-42.614h17.533l-12.188-13.441Zm-37.351,0h30.8l-15.756-14.244Zm-23.945,0h17.532l-2.652-6.672-2.691-6.77Zm58.285-1.138,5.442-13.689h-20.584Zm-37.762-.055,14.4-13.635h-19.818Zm32.459,12.844a1.939,1.939,0,0,1,1.939-1.938,1.939,1.939,0,0,1,1.939,1.938,1.94,1.94,0,0,1-1.939,1.94A1.94,1.94,0,0,1,2174.565-7148.1Zm-5.81-37.765a1.61,1.61,0,0,1,.15-2.271l9.2-8.059a1.611,1.611,0,0,1,2.271.15,1.609,1.609,0,0,1-.151,2.271l-9.2,8.06a1.61,1.61,0,0,1-1.06.4A1.606,1.606,0,0,1,2168.755-7185.86Zm-18.245.15-9.2-8.06a1.609,1.609,0,0,1-.151-2.271,1.611,1.611,0,0,1,2.272-.15l9.2,8.059a1.609,1.609,0,0,1,.149,2.271,1.6,1.6,0,0,1-1.211.549A1.607,1.607,0,0,1,2150.51-7185.71Zm8.649-5.81v-10.817a1.609,1.609,0,0,1,1.61-1.609,1.609,1.609,0,0,1,1.609,1.609v10.817a1.61,1.61,0,0,1-1.609,1.609A1.61,1.61,0,0,1,2159.159-7191.52Z" transform="translate(-1553.344 8555.947)" fill="#171946" stroke="rgba(0,0,0,0)" stroke-width="1"/>
  </g>
</svg>
