<svg xmlns="http://www.w3.org/2000/svg" width="119.867" height="153.559" viewBox="0 0 119.867 153.559">
  <circle id="Elipse_1" data-name="Elipse 1" cx="46.271" cy="46.271" r="46.271" transform="translate(17.735)" fill="#9be1ff" opacity="0.24"/>
  <g id="Grupo_3" data-name="Grupo 3" transform="translate(55.531 20.231) rotate(30)">
    <path id="Caminho_50" data-name="Caminho 50" d="M9.911,52.762V51.376q0-20.213,0-40.426A10.559,10.559,0,0,1,17.379.452c6.822-2.044,13.466,3.084,13.5,10.484.041,8.345.01,16.691.01,25.036v1.294c6.328-1.09,8.374-.516,12.287,3.447A10.453,10.453,0,0,1,57.63,43.083a11.169,11.169,0,0,1,6.224-1.878,10.449,10.449,0,0,1,10.2,9.956c.088,8.6.561,17.242-.148,25.782C72.69,91.57,64.949,102.122,51.51,108.031,30.169,117.414,5.1,104.054.779,81.194a40.508,40.508,0,0,1-.69-6.549c-.1-4.259-.147-8.529.029-12.784a9.468,9.468,0,0,1,8.9-8.989C9.267,52.851,9.513,52.812,9.911,52.762Zm6.5,6.563c-2.1,0-4.077-.006-6.057,0-2.632.01-3.824,1.2-3.831,3.853-.009,3.469-.072,6.94.024,10.406a37.332,37.332,0,0,0,.6,6.454,30.513,30.513,0,0,0,60.413-5.182c.115-7.623.034-15.249.039-22.874a7.242,7.242,0,0,0-.034-.758A3.936,3.936,0,0,0,62.5,47.909a4.054,4.054,0,0,0-2.842,3.674H53.242c.113-2.884-.071-5.67-3.649-6.229-2.142-.334-3.447.914-4.429,3.812H38.724A11.831,11.831,0,0,0,38.68,46.5,4.707,4.707,0,0,0,37.5,44.281a4.034,4.034,0,0,0-2.274-1.06,5,5,0,0,0-2.552.61,3.858,3.858,0,0,0-1.859,3.179H24.387V45.672q0-17.02,0-34.04a11.471,11.471,0,0,0-.016-1.192,4.1,4.1,0,0,0-2.623-3.668,3.688,3.688,0,0,0-4.021.8,4.391,4.391,0,0,0-1.317,3.53q.016,23.416.007,46.832Z" transform="translate(0 0)" fill="#489bd9"/>
    <path id="Caminho_51" data-name="Caminho 51" d="M9.916,52.838V51.447q0-23.417-.007-46.832a4.391,4.391,0,0,1,1.317-3.53,3.688,3.688,0,0,1,4.021-.8A4.1,4.1,0,0,1,17.87,3.953a11.466,11.466,0,0,1,.016,1.192q0,17.02,0,34.04v1.339H24.31a3.858,3.858,0,0,1,1.858-3.179,5,5,0,0,1,2.552-.61,4.034,4.034,0,0,1,2.274,1.06,4.706,4.706,0,0,1,1.185,2.222,11.83,11.83,0,0,1,.044,2.663h6.44c.982-2.9,2.287-4.146,4.429-3.812,3.578.559,3.762,3.344,3.649,6.229h6.417A4.054,4.054,0,0,1,56,41.422a3.936,3.936,0,0,1,5.067,3.318,7.246,7.246,0,0,1,.034.758c-.005,7.624.076,15.25-.039,22.874A30.513,30.513,0,0,1,.651,73.553a37.331,37.331,0,0,1-.6-6.454c-.1-3.466-.033-6.937-.024-10.406.007-2.65,1.2-3.844,3.831-3.853C5.839,52.832,7.819,52.838,9.916,52.838Z" transform="translate(6.5 6.487)" fill="#fff"/>
  </g>
</svg>
