<svg xmlns="http://www.w3.org/2000/svg" width="91" height="82.307" viewBox="0 0 91 82.307">
  <g id="icone_rentabilidade" transform="translate(-561.239 -1537.499)">
    <rect id="Retângulo_77" data-name="Retângulo 77" width="91" height="55" rx="6" transform="translate(561.239 1555.499)" fill="#19aae9" opacity="0.3"/>
    <path id="Retângulo_78" data-name="Retângulo 78" d="M0,0H8a2,2,0,0,1,2,2V15a0,0,0,0,1,0,0H0a0,0,0,0,1,0,0V0A0,0,0,0,1,0,0Z" transform="translate(574.239 1602.499)" fill="#fff"/>
    <path id="Retângulo_79" data-name="Retângulo 79" d="M0,0H8a2,2,0,0,1,2,2V27a0,0,0,0,1,0,0H0a0,0,0,0,1,0,0V0A0,0,0,0,1,0,0Z" transform="translate(599.239 1590.499)" fill="#fff"/>
    <path id="Retângulo_80" data-name="Retângulo 80" d="M0,0H7A2,2,0,0,1,9,2V51a0,0,0,0,1,0,0H0a0,0,0,0,1,0,0V0A0,0,0,0,1,0,0Z" transform="translate(624.239 1566.499)" fill="#fff"/>
    <path id="RENTABILIDADE" d="M2224.031-7172.65a1.583,1.583,0,0,1,.024-2.532,1.924,1.924,0,0,1,1.079-.319c.289,0,.577,0,.867,0l2.59-.05c.02-.871.055-1.742.056-2.611q.01-5.589,0-11.178c0-.271,0-.541.025-.81a4.118,4.118,0,0,1,2.271-3.444,4.17,4.17,0,0,1,2.037-.493h2.861q2.384,0,4.768,0a4.228,4.228,0,0,1,3.56,1.808,4.59,4.59,0,0,1,.795,2.822q0,6.735,0,13.468c0,.485,0,.485.5.485h7.908c.414,0,.415,0,.415-.415q0-13.414,0-26.827a5.2,5.2,0,0,1,.342-2.024,4.191,4.191,0,0,1,1.994-2.17,4.385,4.385,0,0,1,2.04-.486c2.543,0,5.086-.01,7.628,0a4.189,4.189,0,0,1,3.6,1.891,4.265,4.265,0,0,1,.741,2.36c0,.168,0,.335,0,.5v26.743c0,.421,0,.421.431.421h7.937c.483,0,.483,0,.483-.5q0-24.827,0-49.656a4.845,4.845,0,0,1,.337-2.075,4.084,4.084,0,0,1,2.72-2.4,5.874,5.874,0,0,1,1.455-.193c1.295-.01,2.589-.009,3.884-.008,1.127,0,2.254,0,3.382,0a4.408,4.408,0,0,1,3.184,1.169,4.141,4.141,0,0,1,1.129,1.8,6.232,6.232,0,0,1,.221,1.9q0,24.716,0,49.433c0,.535,0,.535.532.535l.868,0c.651,0,1.3,0,1.954.006a1.6,1.6,0,0,1,1.49.815,1.543,1.543,0,0,1-.757,2.207,2.477,2.477,0,0,1-.895.143q-14.993.01-29.985.007h-6.65q-18.3,0-36.607,0A2.076,2.076,0,0,1,2224.031-7172.65Zm59.458-54.5c-.139,0-.278.017-.417.028a.965.965,0,0,0-.726.46,1.539,1.539,0,0,0-.181.968q0,12.379,0,24.757,0,12.434,0,24.868c0,.624-.049.563.549.563h8.83c.566,0,.566,0,.566-.553v-49.486a2.639,2.639,0,0,0-.008-.446,2.186,2.186,0,0,0-.171-.635,1.139,1.139,0,0,0-1.146-.528Q2287.136-7227.146,2283.489-7227.147Zm-25.277,22.907a1.426,1.426,0,0,0-.543.1,1.246,1.246,0,0,0-.7,1.308q0,13.455,0,26.908c0,.425,0,.426.435.426h9.137c.411,0,.412,0,.412-.413q0-6.762,0-13.524t0-13.524a1.149,1.149,0,0,0-1.276-1.281l-2.984,0Q2260.45-7204.246,2258.212-7204.24Zm-25.41,13.346a.94.94,0,0,0-.8.525,2.19,2.19,0,0,0-.162.8c-.013,2.255-.007,4.508-.007,6.762q0,3.465,0,6.929c0,.373,0,.375.373.375h9.165c.41,0,.413,0,.413-.429v-7.517c0-2.012.005-4.023-.006-6.035a2.076,2.076,0,0,0-.147-.841,1.1,1.1,0,0,0-1.114-.586q-2.557,0-5.11,0h-2.369A1.53,1.53,0,0,0,2232.8-7190.894Zm-1.134-14.551a1.513,1.513,0,0,1,1.555-1.582,1.485,1.485,0,0,1,1.566,1.569,1.516,1.516,0,0,1-1.553,1.556h-.016A1.538,1.538,0,0,1,2231.669-7205.445Zm6.55-4.032a1.765,1.765,0,0,1-1.144-1.1,1.719,1.719,0,0,1,.546-1.712q8.985-8.995,17.978-17.981,5.116-5.116,10.232-10.231a1.615,1.615,0,0,1,1.627-.557,2.263,2.263,0,0,1,.94.549c1.851,1.817,3.678,3.658,5.513,5.491.252.251.275.25.532-.007q6.884-6.88,13.766-13.761.681-.679,1.359-1.361c.07-.071.135-.146.246-.268-.194-.015-.329-.032-.462-.032-1.742,0-3.484,0-5.226,0a1.666,1.666,0,0,1-1.5-.746,1.553,1.553,0,0,1,.705-2.282,2.177,2.177,0,0,1,.731-.143c3.148-.01,6.3,0,9.444-.007a1.6,1.6,0,0,1,1.6.938,2.34,2.34,0,0,1,.173.918q.018,4.387,0,8.774a1.646,1.646,0,0,1-.827,1.537,1.639,1.639,0,0,1-1.953-.355,2.013,2.013,0,0,1-.4-1.306c-.01-1.517,0-3.036-.006-4.554a3.053,3.053,0,0,0-.042-.358l-.083-.021c-.183.177-.368.352-.549.532q-7.973,7.975-15.948,15.95a1.607,1.607,0,0,1-1.882.518,2.182,2.182,0,0,1-.659-.452q-2.774-2.747-5.528-5.514c-.279-.278-.291-.28-.571,0q-13.444,13.444-26.884,26.891a1.966,1.966,0,0,1-1.41.685A1.887,1.887,0,0,1,2238.219-7209.477Z" transform="translate(-1655.893 8791.629)" fill="#171946" stroke="rgba(0,0,0,0)" stroke-width="1"/>
  </g>
</svg>
