<svg xmlns="http://www.w3.org/2000/svg" width="70.429" height="87.506" viewBox="0 0 70.429 87.506">
  <g id="icone_seguranca" transform="translate(0.479 0.507)">
    <path id="Caminho_68" data-name="Caminho 68" d="M321.576,74.4h.006c.21,4.622-.481,9.388.366,13.936,3.24,10,12.041,17.361,21.881,20.494,1.146.443,2.237-.455,3.329-.733,8.655-3.25,16.2-9.938,19.474-18.695a10.505,10.505,0,0,0,.743-3.811q-.019-11.589-.006-23.179c.129-.782-.9-.691-1.4-.909a60.8,60.8,0,0,1-13.613-5.725c-11.6-6.461-3.943-7.093-14.584-.692a63.031,63.031,0,0,1-15.738,6.7c-.452.129-.459.105-.459.583Q321.576,68.386,321.576,74.4Z" transform="translate(-311.686 -31.953)" fill="#19aae9" opacity="0.3"/>
    <path id="SEGURANÇA" d="M1637.971-6829.151a50.022,50.022,0,0,1-15.881-8.868,41.6,41.6,0,0,1-13.751-21.183c-.889-6.4-.186-12.951-.395-19.4h-.005q0-8.3,0-16.606a1.966,1.966,0,0,1,.966-1.879,34.2,34.2,0,0,1,4.672-1.061,53.168,53.168,0,0,0,27.662-15.6c2.03-2.184,3.82,1.494,5.331,2.592a50.693,50.693,0,0,0,11.305,8,55.315,55.315,0,0,0,10.984,4.308c11.171,2.891,7.922-.644,8.419,13.794a1.689,1.689,0,0,1-1.036,1.654,1.713,1.713,0,0,1-2.34-1.762c-.013-2.876-.008-5.754-.008-8.63,0-.453-.005-.433-.441-.52a61.924,61.924,0,0,1-8.807-2.285,55.832,55.832,0,0,1-21.69-13.336c-.341-.343-.342-.344-.692.008a52.875,52.875,0,0,1-5.6,4.874,57.442,57.442,0,0,1-10.993,6.463,59.7,59.7,0,0,1-13.971,4.282c-1.081,9.7-.005,20.806-.381,30.967a15.785,15.785,0,0,0,.379,3.688c3.063,11.111,11.666,20.192,21.972,25.067a47.623,47.623,0,0,0,7.421,2.881,3.437,3.437,0,0,0,2.1.288c13.815-3.755,26.421-14.029,30.3-28.155.7-3.3.325-6.707.4-10.053a1.693,1.693,0,0,1,3.382-.161c-.143,3.856.42,7.81-.627,11.574-4,13.632-15.428,24.126-28.623,28.807-2.871.929-4,1.477-5.316,1.477A15.649,15.649,0,0,1,1637.971-6829.151Zm3.337-6.014c-.938-.312-1.879-.614-2.8-.97-10.547-4.026-19.7-12.373-23.242-23.256a9.8,9.8,0,0,1-.548-3.149c-.022-4.5-.013-9.008-.016-13.511.271-24.15-3.292-9.913,18.8-22.811,14.335-9.156,4.734-7.4,19.667.839a65.935,65.935,0,0,0,15.895,6.252,2.048,2.048,0,0,1,1.438,1.717c.036,8.9,0,17.8.018,26.694.094,3.194-1.3,6.144-2.683,8.94a38.751,38.751,0,0,1-19.206,17.466,54.235,54.235,0,0,1-5.41,2.016,1.753,1.753,0,0,1-.557.089A4.337,4.337,0,0,1,1641.308-6835.165Zm-5.876-60.91a67.486,67.486,0,0,1-16.853,7.171c-.484.138-.492.112-.492.625v12.886h.007c.224,4.949-.516,10.053.391,14.924,3.471,10.708,12.895,18.592,23.432,21.946,1.227.474,2.4-.487,3.565-.784,9.268-3.481,17.345-10.644,20.854-20.02a11.251,11.251,0,0,0,.8-4.081q-.02-12.411-.007-24.821c.138-.838-.965-.74-1.5-.975a65,65,0,0,1-14.578-6.13c-6.531-3.637-7.363-5.549-8.338-5.549C1641.833-6900.884,1640.838-6899.327,1635.432-6896.075Zm6.957,43.23c-1.4-.132-1.588-1.625-1.467-2.764h-.008c-.112-.511.3-1.417-.361-1.608a7.288,7.288,0,0,1-4.2-3.267,1.771,1.771,0,0,1,.745-2.706c1.957-.584,2.1,1.591,3.427,2.294a3.846,3.846,0,0,0,5.464-1.387,3.817,3.817,0,0,0-1.423-5.217c-1.457-.889-3.286-.306-4.787-1.113-5.322-2.109-5.992-9.957-.987-12.83.428-.427,2.205-.661,2.127-1.212,0-.725.024-1.449,0-2.172a1.7,1.7,0,0,1,3.219-.821c.468.783-.238,3.263.512,3.393a6.873,6.873,0,0,1,4.47,3.8c.859,2.058-2.254,3.22-3.134,1.26a3.877,3.877,0,0,0-6.556-.293,3.882,3.882,0,0,0,2.96,6.058,7.4,7.4,0,0,1,5.915,2.774,7.238,7.238,0,0,1-2.026,10.744c-.5.459-1.984.475-1.977,1.225.052,1.466.3,3.858-1.663,3.858C1642.553-6852.834,1642.473-6852.837,1642.389-6852.845Zm33.2-26.192a1.685,1.685,0,0,1-.006,3.369h-.007A1.685,1.685,0,0,1,1675.593-6879.037Z" transform="translate(-1607.877 6914.425)" fill="#171946" stroke="rgba(0,0,0,0)" stroke-width="1"/>
  </g>
</svg>
