<svg xmlns="http://www.w3.org/2000/svg" width="79.471" height="88.033" viewBox="0 0 79.471 88.033">
  <g id="icone_area" transform="translate(0.505)">
    <rect id="Retângulo_82" data-name="Retângulo 82" width="66" height="66" transform="translate(3)" fill="#b8e5f8"/>
    <path id="icon_area" data-name="icon area" d="M-2444.212-8130.644q-2.623-1.626-5.232-3.266c-.607-.378-1.223-.746-1.821-1.137a1.312,1.312,0,0,1,0-2.244c1.486-.944,2.989-1.865,4.484-2.8.849-.53,1.7-1.061,2.546-1.589a1.3,1.3,0,0,1,1.893.461,1.9,1.9,0,0,1,.186.828c.023.816.009,1.635.009,2.453,0,.436,0,.439.433.439h42.743c.451,0,.451,0,.451-.444,0-.828,0-1.653,0-2.48a1.463,1.463,0,0,1,.477-1.156,1.316,1.316,0,0,1,1.6-.114q2.732,1.7,5.461,3.407c.523.326,1.051.645,1.57.979a1.311,1.311,0,0,1,0,2.271c-1.491.939-2.988,1.863-4.484,2.793-.842.525-1.681,1.056-2.526,1.574a1.519,1.519,0,0,1-.556.23,1.382,1.382,0,0,1-1.54-1.451c0-.865,0-1.728,0-2.591,0-.347-.021-.365-.367-.365h-42.878c-.358,0-.381.023-.381.387,0,.844,0,1.688,0,2.535a1.427,1.427,0,0,1-.489,1.174,1.342,1.342,0,0,1-.842.342A1.385,1.385,0,0,1-2444.212-8130.644Zm-18.382-15.73c-.645-1-1.263-2.014-1.891-3.023-.816-1.312-1.6-2.645-2.456-3.935a1.365,1.365,0,0,1,1.207-2.166c.844.008,1.691,0,2.535,0,.4,0,.4-.007.4-.409v-33.705a1.731,1.731,0,0,1,.309-1.193,1.348,1.348,0,0,1,1.4-.432,1.321,1.321,0,0,1,.879.962,4.725,4.725,0,0,1,.053.726q0,8.345,0,16.689v16.906c0,.456,0,.456.468.456.8,0,1.6-.007,2.4,0a1.452,1.452,0,0,1,1.242.514,1.294,1.294,0,0,1,.058,1.6q-1.775,2.846-3.551,5.688c-.3.479-.568.979-.909,1.423a1.3,1.3,0,0,1-1.04.536A1.329,1.329,0,0,1-2462.594-8146.374Zm11.2.323a1.284,1.284,0,0,1-.477-.842,5.305,5.305,0,0,1-.021-.539q0-29.88,0-59.76a1.5,1.5,0,0,1,.323-1.187,5.69,5.69,0,0,1,.763-.523h60.948c.27.2.56.37.807.591a1.086,1.086,0,0,1,.293.867q.007,2,0,3.991a1.37,1.37,0,0,1-1.063,1.4,1.275,1.275,0,0,1-1.528-1.025c-.058-.9-.054-1.8-.072-2.693-.007-.417-.03-.444-.444-.444h-37.3c-.43,0-.453.023-.453.461v29.286c0,.472.014.488.481.488q11.473,0,22.949,0a1.7,1.7,0,0,1,1.193.314,1.288,1.288,0,0,1,.421,1.4,1.211,1.211,0,0,1-.958.882,2.761,2.761,0,0,1-.616.051q-11.474,0-22.949,0c-.521,0-.521,0-.521.509q0,4,0,8.01a1.74,1.74,0,0,1-.214,1.007,1.3,1.3,0,0,1-1.5.554,1.238,1.238,0,0,1-.9-1.03,4.271,4.271,0,0,1-.04-.645v-40.747c0-.091-.007-.182,0-.272.016-.19-.065-.286-.263-.274-.082,0-.163,0-.242,0h-15.937c-.091,0-.182,0-.27,0a.234.234,0,0,0-.251.256v.243q0,28.4,0,56.794v.27a.231.231,0,0,0,.251.254c.072,0,.144,0,.216,0h16.044c.053,0,.107,0,.163,0,.2.015.3-.069.288-.281-.009-.145,0-.288,0-.433q0-2.8,0-5.609a1.372,1.372,0,0,1,.723-1.314,1.316,1.316,0,0,1,1.707.431,1.714,1.714,0,0,1,.23,1c.007,1.914,0,3.828,0,5.742,0,.437.021.458.456.458q18.646,0,37.3,0c.414,0,.442-.025.442-.444v-24.054c0-.433,0-.433-.437-.433h-4.721a1.381,1.381,0,0,1-1.244-.607,1.28,1.28,0,0,1,.217-1.7,1.542,1.542,0,0,1,1.125-.347q2.278,0,4.558,0c.488,0,.5-.011.5-.5q0-11.03,0-22.059a1.823,1.823,0,0,1,.237-1.084,1.363,1.363,0,0,1,1.521-.521,1.4,1.4,0,0,1,.879,1.1,3.843,3.843,0,0,1,.025.431q0,25.62,0,51.238a1.485,1.485,0,0,1-.865,1.528,1.094,1.094,0,0,1-.337.081,4.209,4.209,0,0,1-.458.012q-29.921,0-59.841,0A1.61,1.61,0,0,1-2451.394-8146.051Zm-10.47-46.236a1.314,1.314,0,0,1-.9-1.067c-.026-.96-.028-1.92-.032-2.884,0-.825,0-1.653,0-2.479,0-.393-.007-.4-.411-.4-.352,0-.7,0-1.054,0-.468,0-.935,0-1.4,0a1.42,1.42,0,0,1-1.46-.879,1.248,1.248,0,0,1,.125-1.194q2.006-3.231,4.031-6.457a4.245,4.245,0,0,1,.456-.69,6.372,6.372,0,0,1,.7-.561h.646a1.631,1.631,0,0,1,.426.27,10.908,10.908,0,0,1,.854,1.124c.707,1.1,1.393,2.226,2.086,3.339.623,1,1.27,1.991,1.867,3.008a1.341,1.341,0,0,1-1.244,2.039c-.816.017-1.632,0-2.451,0-.607,0-.516,0-.519.53q0,2.386,0,4.772a1.631,1.631,0,0,1-.349,1.154,1.5,1.5,0,0,1-1.016.438A.963.963,0,0,1-2461.864-8192.287Z" transform="translate(2467.219 8217.939)" fill="#171946" stroke="rgba(0,0,0,0)" stroke-width="1"/>
  </g>
</svg>
